<svg width="264" height="44" viewBox="0 0 264 44" fill="none" xmlns="http://www.w3.org/2000/svg">
<path d="M0 8C0 4.68629 2.68629 2 6 2H258C261.314 2 264 4.68629 264 8V36C264 39.3137 261.314 42 258 42H5.99999C2.68629 42 0 39.3137 0 36V8Z" fill="white"/>
<path d="M18.6667 24.5V26.1667M22 21.1667V26.1667M25.3333 17.8333V26.1667M18.5 29.5H25.5C26.9001 29.5 27.6002 29.5 28.135 29.2275C28.6054 28.9878 28.9878 28.6054 29.2275 28.135C29.5 27.6002 29.5 26.9001 29.5 25.5V18.5C29.5 17.0999 29.5 16.3998 29.2275 15.865C28.9878 15.3946 28.6054 15.0122 28.135 14.7725C27.6002 14.5 26.9001 14.5 25.5 14.5H18.5C17.0999 14.5 16.3998 14.5 15.865 14.7725C15.3946 15.0122 15.0122 15.3946 14.7725 15.865C14.5 16.3998 14.5 17.0999 14.5 18.5V25.5C14.5 26.9001 14.5 27.6002 14.7725 28.135C15.0122 28.6054 15.3946 28.9878 15.865 29.2275C16.3998 29.5 17.0999 29.5 18.5 29.5Z" stroke="#A4A7AE" stroke-width="1.67" stroke-linecap="round" stroke-linejoin="round"/>
<path d="M45.0909 28H41.1477V16.3636H45.1705C46.3258 16.3636 47.3182 16.5966 48.1477 17.0625C48.9811 17.5246 49.6212 18.1894 50.0682 19.0568C50.5152 19.9242 50.7386 20.9621 50.7386 22.1705C50.7386 23.3826 50.5133 24.4242 50.0625 25.2955C49.6155 26.1667 48.9697 26.8352 48.125 27.3011C47.2841 27.767 46.2727 28 45.0909 28ZM43.2557 26.1761H44.9886C45.7992 26.1761 46.4754 26.0284 47.017 25.733C47.5587 25.4337 47.9659 24.9886 48.2386 24.3977C48.5114 23.803 48.6477 23.0606 48.6477 22.1705C48.6477 21.2803 48.5114 20.5417 48.2386 19.9545C47.9659 19.3636 47.5625 18.9223 47.0284 18.6307C46.4981 18.3352 45.839 18.1875 45.0511 18.1875H43.2557V26.1761ZM55.1619 28.1761C54.6089 28.1761 54.1108 28.0777 53.6676 27.8807C53.2282 27.6799 52.8797 27.3845 52.6222 26.9943C52.3684 26.6042 52.2415 26.1231 52.2415 25.5511C52.2415 25.0587 52.3324 24.6515 52.5142 24.3295C52.696 24.0076 52.9441 23.75 53.2585 23.5568C53.5729 23.3636 53.9271 23.2178 54.321 23.1193C54.7188 23.017 55.1297 22.9432 55.554 22.8977C56.0653 22.8447 56.4801 22.7973 56.7983 22.7557C57.1165 22.7102 57.3475 22.642 57.4915 22.5511C57.6392 22.4564 57.7131 22.3106 57.7131 22.1136V22.0795C57.7131 21.6515 57.5862 21.3201 57.3324 21.0852C57.0786 20.8504 56.7131 20.733 56.2358 20.733C55.732 20.733 55.3324 20.8428 55.0369 21.0625C54.7453 21.2822 54.5483 21.5417 54.446 21.8409L52.5256 21.5682C52.6771 21.0379 52.9271 20.5947 53.2756 20.2386C53.6241 19.8788 54.0502 19.6098 54.554 19.4318C55.0578 19.25 55.6146 19.1591 56.2244 19.1591C56.6449 19.1591 57.0634 19.2083 57.4801 19.3068C57.8968 19.4053 58.2775 19.5682 58.6222 19.7955C58.9669 20.0189 59.2434 20.3239 59.4517 20.7102C59.6638 21.0966 59.7699 21.5795 59.7699 22.1591V28H57.7926V26.8011H57.7244C57.5994 27.0436 57.4233 27.2708 57.196 27.483C56.9725 27.6913 56.6903 27.8598 56.3494 27.9886C56.0123 28.1136 55.6165 28.1761 55.1619 28.1761ZM55.696 26.6648C56.1089 26.6648 56.4669 26.5833 56.7699 26.4205C57.0729 26.2538 57.3059 26.0341 57.4688 25.7614C57.6354 25.4886 57.7188 25.1913 57.7188 24.8693V23.8409C57.6544 23.8939 57.5445 23.9432 57.3892 23.9886C57.2377 24.0341 57.0672 24.0739 56.8778 24.108C56.6884 24.142 56.5009 24.1723 56.3153 24.1989C56.1297 24.2254 55.9688 24.2481 55.8324 24.267C55.5256 24.3087 55.2509 24.3769 55.0085 24.4716C54.7661 24.5663 54.5748 24.6989 54.4347 24.8693C54.2945 25.036 54.2244 25.2519 54.2244 25.517C54.2244 25.8958 54.3627 26.1818 54.6392 26.375C54.9157 26.5682 55.268 26.6648 55.696 26.6648ZM68.7358 21.5795L66.8608 21.7841C66.8078 21.5947 66.715 21.4167 66.5824 21.25C66.4536 21.0833 66.2794 20.9489 66.0597 20.8466C65.84 20.7443 65.571 20.6932 65.2528 20.6932C64.8248 20.6932 64.465 20.786 64.1733 20.9716C63.8854 21.1572 63.7434 21.3977 63.7472 21.6932C63.7434 21.947 63.8362 22.1534 64.0256 22.3125C64.2188 22.4716 64.5369 22.6023 64.9801 22.7045L66.4688 23.0227C67.2945 23.2008 67.9081 23.483 68.3097 23.8693C68.715 24.2557 68.9195 24.7614 68.9233 25.3864C68.9195 25.9356 68.7585 26.4205 68.4403 26.8409C68.1259 27.2576 67.6884 27.5833 67.1278 27.8182C66.5672 28.053 65.9233 28.1705 65.196 28.1705C64.1278 28.1705 63.268 27.947 62.6165 27.5C61.965 27.0492 61.5767 26.4223 61.4517 25.6193L63.4574 25.4261C63.5483 25.8201 63.7415 26.1174 64.0369 26.3182C64.3324 26.5189 64.7169 26.6193 65.1903 26.6193C65.679 26.6193 66.071 26.5189 66.3665 26.3182C66.6657 26.1174 66.8153 25.8693 66.8153 25.5739C66.8153 25.3239 66.7188 25.1174 66.5256 24.9545C66.3362 24.7917 66.0407 24.6667 65.6392 24.5795L64.1506 24.267C63.3134 24.0928 62.6941 23.7992 62.2926 23.3864C61.8911 22.9697 61.6922 22.4432 61.696 21.8068C61.6922 21.2689 61.8381 20.803 62.1335 20.4091C62.4328 20.0114 62.8475 19.7045 63.3778 19.4886C63.9119 19.2689 64.5275 19.1591 65.2244 19.1591C66.2472 19.1591 67.0521 19.3769 67.6392 19.8125C68.2301 20.2481 68.5956 20.8371 68.7358 21.5795ZM72.6761 22.8864V28H70.6193V16.3636H72.6307V20.7557H72.733C72.9375 20.2633 73.2538 19.875 73.6818 19.5909C74.1136 19.303 74.6629 19.1591 75.3295 19.1591C75.9356 19.1591 76.464 19.286 76.9148 19.5398C77.3655 19.7936 77.714 20.1648 77.9602 20.6534C78.2102 21.142 78.3352 21.7386 78.3352 22.4432V28H76.2784V22.7614C76.2784 22.1742 76.1269 21.7178 75.8239 21.392C75.5246 21.0625 75.1042 20.8977 74.5625 20.8977C74.1989 20.8977 73.8731 20.9773 73.5852 21.1364C73.3011 21.2917 73.0777 21.517 72.9148 21.8125C72.7557 22.108 72.6761 22.4659 72.6761 22.8864ZM80.5227 28V16.3636H82.5795V20.7159H82.6648C82.7708 20.5038 82.9205 20.2784 83.1136 20.0398C83.3068 19.7973 83.5682 19.5909 83.8977 19.4205C84.2273 19.2462 84.6477 19.1591 85.1591 19.1591C85.8333 19.1591 86.4413 19.3314 86.983 19.6761C87.5284 20.017 87.9602 20.5227 88.2784 21.1932C88.6004 21.8598 88.7614 22.678 88.7614 23.6477C88.7614 24.6061 88.6042 25.4205 88.2898 26.0909C87.9754 26.7614 87.5473 27.2727 87.0057 27.625C86.464 27.9773 85.8504 28.1534 85.1648 28.1534C84.6648 28.1534 84.25 28.0701 83.9205 27.9034C83.5909 27.7367 83.3258 27.536 83.125 27.3011C82.928 27.0625 82.7746 26.8371 82.6648 26.625H82.5455V28H80.5227ZM82.5398 23.6364C82.5398 24.2008 82.6193 24.6951 82.7784 25.1193C82.9413 25.5436 83.1742 25.875 83.4773 26.1136C83.7841 26.3485 84.1553 26.4659 84.5909 26.4659C85.0455 26.4659 85.4261 26.3447 85.733 26.1023C86.0398 25.8561 86.2708 25.5208 86.4261 25.0966C86.5852 24.6686 86.6648 24.1818 86.6648 23.6364C86.6648 23.0947 86.5871 22.6136 86.4318 22.1932C86.2765 21.7727 86.0455 21.4432 85.7386 21.2045C85.4318 20.9659 85.0492 20.8466 84.5909 20.8466C84.1515 20.8466 83.7784 20.9621 83.4716 21.1932C83.1648 21.4242 82.9318 21.7481 82.7727 22.1648C82.6174 22.5814 82.5398 23.072 82.5398 23.6364ZM94.3168 28.1705C93.4645 28.1705 92.7259 27.983 92.1009 27.608C91.4759 27.233 90.991 26.7083 90.6463 26.0341C90.3054 25.3598 90.1349 24.572 90.1349 23.6705C90.1349 22.7689 90.3054 21.9792 90.6463 21.3011C90.991 20.6231 91.4759 20.0966 92.1009 19.7216C92.7259 19.3466 93.4645 19.1591 94.3168 19.1591C95.169 19.1591 95.9077 19.3466 96.5327 19.7216C97.1577 20.0966 97.6406 20.6231 97.9815 21.3011C98.3262 21.9792 98.4986 22.7689 98.4986 23.6705C98.4986 24.572 98.3262 25.3598 97.9815 26.0341C97.6406 26.7083 97.1577 27.233 96.5327 27.608C95.9077 27.983 95.169 28.1705 94.3168 28.1705ZM94.3281 26.5227C94.7902 26.5227 95.1766 26.3958 95.4872 26.142C95.7978 25.8845 96.0289 25.5398 96.1804 25.108C96.3357 24.6761 96.4134 24.1951 96.4134 23.6648C96.4134 23.1307 96.3357 22.6477 96.1804 22.2159C96.0289 21.7803 95.7978 21.4337 95.4872 21.1761C95.1766 20.9186 94.7902 20.7898 94.3281 20.7898C93.8546 20.7898 93.4607 20.9186 93.1463 21.1761C92.8357 21.4337 92.6027 21.7803 92.4474 22.2159C92.2959 22.6477 92.2202 23.1307 92.2202 23.6648C92.2202 24.1951 92.2959 24.6761 92.4474 25.108C92.6027 25.5398 92.8357 25.8845 93.1463 26.142C93.4607 26.3958 93.8546 26.5227 94.3281 26.5227ZM102.756 28.1761C102.203 28.1761 101.705 28.0777 101.261 27.8807C100.822 27.6799 100.473 27.3845 100.216 26.9943C99.9621 26.6042 99.8352 26.1231 99.8352 25.5511C99.8352 25.0587 99.9261 24.6515 100.108 24.3295C100.29 24.0076 100.538 23.75 100.852 23.5568C101.167 23.3636 101.521 23.2178 101.915 23.1193C102.313 23.017 102.723 22.9432 103.148 22.8977C103.659 22.8447 104.074 22.7973 104.392 22.7557C104.71 22.7102 104.941 22.642 105.085 22.5511C105.233 22.4564 105.307 22.3106 105.307 22.1136V22.0795C105.307 21.6515 105.18 21.3201 104.926 21.0852C104.672 20.8504 104.307 20.733 103.83 20.733C103.326 20.733 102.926 20.8428 102.631 21.0625C102.339 21.2822 102.142 21.5417 102.04 21.8409L100.119 21.5682C100.271 21.0379 100.521 20.5947 100.869 20.2386C101.218 19.8788 101.644 19.6098 102.148 19.4318C102.652 19.25 103.208 19.1591 103.818 19.1591C104.239 19.1591 104.657 19.2083 105.074 19.3068C105.491 19.4053 105.871 19.5682 106.216 19.7955C106.561 20.0189 106.837 20.3239 107.045 20.7102C107.258 21.0966 107.364 21.5795 107.364 22.1591V28H105.386V26.8011H105.318C105.193 27.0436 105.017 27.2708 104.79 27.483C104.566 27.6913 104.284 27.8598 103.943 27.9886C103.606 28.1136 103.21 28.1761 102.756 28.1761ZM103.29 26.6648C103.703 26.6648 104.061 26.5833 104.364 26.4205C104.667 26.2538 104.9 26.0341 105.062 25.7614C105.229 25.4886 105.312 25.1913 105.312 24.8693V23.8409C105.248 23.8939 105.138 23.9432 104.983 23.9886C104.831 24.0341 104.661 24.0739 104.472 24.108C104.282 24.142 104.095 24.1723 103.909 24.1989C103.723 24.2254 103.563 24.2481 103.426 24.267C103.119 24.3087 102.845 24.3769 102.602 24.4716C102.36 24.5663 102.169 24.6989 102.028 24.8693C101.888 25.036 101.818 25.2519 101.818 25.517C101.818 25.8958 101.956 26.1818 102.233 26.375C102.509 26.5682 102.862 26.6648 103.29 26.6648ZM109.432 28V19.2727H111.426V20.7273H111.517C111.676 20.2235 111.949 19.8352 112.335 19.5625C112.725 19.286 113.17 19.1477 113.67 19.1477C113.784 19.1477 113.911 19.1534 114.051 19.1648C114.195 19.1723 114.314 19.1856 114.409 19.2045V21.0966C114.322 21.0663 114.184 21.0398 113.994 21.017C113.809 20.9905 113.629 20.9773 113.455 20.9773C113.08 20.9773 112.742 21.0587 112.443 21.2216C112.148 21.3807 111.915 21.6023 111.744 21.8864C111.574 22.1705 111.489 22.4981 111.489 22.8693V28H109.432ZM118.655 28.1534C117.969 28.1534 117.356 27.9773 116.814 27.625C116.272 27.2727 115.844 26.7614 115.53 26.0909C115.215 25.4205 115.058 24.6061 115.058 23.6477C115.058 22.678 115.217 21.8598 115.536 21.1932C115.857 20.5227 116.291 20.017 116.837 19.6761C117.382 19.3314 117.99 19.1591 118.661 19.1591C119.172 19.1591 119.592 19.2462 119.922 19.4205C120.251 19.5909 120.513 19.7973 120.706 20.0398C120.899 20.2784 121.049 20.5038 121.155 20.7159H121.24V16.3636H123.303V28H121.28V26.625H121.155C121.049 26.8371 120.895 27.0625 120.695 27.3011C120.494 27.536 120.229 27.7367 119.899 27.9034C119.57 28.0701 119.155 28.1534 118.655 28.1534ZM119.229 26.4659C119.664 26.4659 120.036 26.3485 120.342 26.1136C120.649 25.875 120.882 25.5436 121.041 25.1193C121.2 24.6951 121.28 24.2008 121.28 23.6364C121.28 23.072 121.2 22.5814 121.041 22.1648C120.886 21.7481 120.655 21.4242 120.348 21.1932C120.045 20.9621 119.672 20.8466 119.229 20.8466C118.77 20.8466 118.388 20.9659 118.081 21.2045C117.774 21.4432 117.543 21.7727 117.388 22.1932C117.232 22.6136 117.155 23.0947 117.155 23.6364C117.155 24.1818 117.232 24.6686 117.388 25.0966C117.547 25.5208 117.78 25.8561 118.087 26.1023C118.397 26.3447 118.778 26.4659 119.229 26.4659Z" fill="#414651"/>
<path d="M240 20L244 24L248 20" stroke="#A4A7AE" stroke-width="1.67" stroke-linecap="round" stroke-linejoin="round"/>
</svg>
